<?xml version="1.0" encoding="UTF-8"?>
<svg id="Layer_1" data-name="Layer 1" xmlns="http://www.w3.org/2000/svg" viewBox="0 0 1000 1000">
  <defs>
    <style>
      .cls-1 {
        fill: #112148;
      }
    </style>
  </defs>
  <path class="cls-1" d="M764.41,393.72c-2.81-51.51-38.23-89.2-87.36-91.04-52.08-2.08-90.74,32.65-94.93,86.57-2.08,27.82-.87,56.1-3.65,83.95-3.92,39.35-32.83,64.48-69.19,62.64-37.24-1.75-62.47-30.03-66.49-68.65,0-.05,0-.1-.01-.15l-.9-19.4c-.09-1.85-2.26-2.79-3.67-1.59-3.56,3.04-7.13,6.09-10.72,9.16-10.67,9.11-20.45,19.23-29.01,30.36-.12.16-.24.31-.36.47-15.49,20.07-28.21,41.08-39.28,62.6-.74,1.44-2.73,1.64-3.73.36-4.37-5.6-8.61-11.36-12.58-17.43-30.11-45.11-45.2-99.73-45.2-163.79,0-106.79,45.35-197.53,141.88-248.13,55.94-29.34,120.02-46.01,184.67-49.9,2.63-.16,2.88-3.92.29-4.42-27.29-5.27-55.47-8.03-84.3-8.03-244.51,0-442.7,198.19-442.7,442.7,0,206.54,141.47,380.07,332.79,428.95.91.23,1.87-.13,2.39-.91,20.29-29.86,43.89-57.48,70.37-82.08,40.59-37.75,85.49-68.53,122.63-110.53,35.79-40.49,66.78-86.6,91.88-133.43,34.37-64.03,51.12-135.61,47.16-208.27ZM487.01,596.83c-32.44,65.45-64.82,130.96-96.5,196.77-8.36,17.35-20.94,23.45-38.65,19.28-18.04-4.19-15.27-19.37-15.18-32.38.27-30.63.97-61.16,1.39-91.79h-.33c.09-2.72.09-5.31.15-8.03,1.6-126.89,2.29-127.31,131.5-111.62,18.86,2.29,27.67,7.69,17.62,27.76Z"/>
  <path class="cls-1" d="M902.82,753.47c-80.02,114.39-212.73,189.23-362.94,189.23-1.3,0-2.62,0-3.92-.03,37.11-72.42,94.75-131.53,180.27-162.28,52.9-19.04,109.14-27.64,165.27-27.64,6.43,0,12.7.09,18.89.3.75.12,1.57.27,2.44.42Z"/>
  <path class="cls-1" d="M597.62,776.53s0,0,.01,0c-1.68-1.85-.85-.92-.01,0Z"/>
</svg>