<?xml version="1.0" encoding="UTF-8"?>
<svg id="Layer_1" data-name="Layer 1" xmlns="http://www.w3.org/2000/svg" viewBox="0 0 1600 946">
  <defs>
    <style>
      .cls-1 {
        fill: #f6e2df;
      }
    </style>
  </defs>
  <g>
    <path class="cls-1" d="M567.38,383.07c5.47,0,10.52-.84,10.52-.84v-25.68c-15.19,1.43-30.38.4-30.73-31.57,0,0,0-239.52,0-239.52h-28.62v245.84c0,46.31,31.15,51.78,48.83,51.78Z"/>
    <path class="cls-1" d="M750.07,340.55h.84c-.85,2.12-.96,34.08-.84,40.83h27.36c-6.92-68.34,33.31-222.97-79.14-216.79-47.57,0-75.35,23.99-75.35,23.99l13.47,21.89c24.97-22.96,118.87-42.28,112.39,39.99-175.65-14.61-177.05,130.53-69.46,135.97,53.04,0,70.72-45.89,70.72-45.89ZM636.84,322.03c1.71-51.66,75.65-47.51,111.97-47.99,7.49,91.51-102.01,119.68-111.97,47.99Z"/>
    <path class="cls-1" d="M1022.42,353.18l-13.05-22.31c-37.54,49.42-151.51,38.4-151.12-55.15-1.26-88.56,104.33-105.71,144.39-59.35l14.73-21.47c-50-59.44-193-28.37-188.58,80.83-2.52,115.29,143.05,137.89,193.64,77.45Z"/>
    <polygon class="cls-1" points="1208.06 381.39 1242.16 381.39 1161.33 262.68 1161.33 261.84 1235 169.65 1200.48 169.65 1136.92 250.47 1103.24 250.47 1103.24 85.46 1074.62 85.46 1074.62 381.39 1103.24 381.39 1103.24 275.31 1137.34 275.31 1208.06 381.39"/>
    <path class="cls-1" d="M524.37,568.3c-4.21,10.52-7.16,22.31-7.16,22.31h-.84c-1.07-9.27-64.96-163.52-69.88-176.8h-31.57l88.4,210.06c-14.36,36.87-35.54,86.03-78.3,54.72l-10.94,22.73c27.36,24.11,83.48,12.49,98.08-31.57,0,0,104.4-255.94,104.4-255.94h-31.15l-61.04,154.49Z"/>
    <path class="cls-1" d="M803.88,436.97c0,4.63.42,7.16.42,7.16h-.84c-35.21-66.81-170.02-37.4-161.64,71.57-8.03,95.22,113.04,150.97,161.22,71.56h.84c-.82,2.45-.97,28.48-.84,34.52,3.45,77.31-96.76,74.93-131.34,51.78l-10.95,23.57c65.15,33.53,170.84,21.29,170.91-76.61,0,0,0-206.69,0-206.69h-27.78v23.15ZM740.73,598.61c-88.7,6.27-94.64-168.84-4.21-163.75,90.21-10.45,88.24,170.96,4.21,163.75Z"/>
    <path class="cls-1" d="M1013.5,408.76c-50.09,0-77.03,34.1-84.61,53.46h-.84c1.08-4.31.85-40.65.84-48.41h-28.2v211.74h28.63c3.65-71.87-24.48-182.34,80.4-189.85,40.83,0,45.88,29.47,45.88,62.72v127.13h28.62c-8.49-62.79,34.58-223.44-70.72-216.79Z"/>
    <path class="cls-1" d="M1239.97,408.76c-57.25,0-104.4,41.67-104.4,111.13-2.36,111.22,133.23,137.76,189.01,81.24l-13.05-21.89c-37.85,42.67-146.84,34.53-146.49-58.09h162.49c6.7-55.54-23.3-113.35-87.56-112.39ZM1166.3,497.58c9.84-81,130.49-92.09,133.02,0h-133.02Z"/>
    <path class="cls-1" d="M1467.28,601.56c-69.92,4.38-42.46-114.83-47.57-161.23h53.04v-23.99h-53.04v-61.04h-28.2v61.04h-28.2v23.99h27.78c1.91,79.7-21.88,200.54,85.87,186.06v-25.68s-3.79.84-9.68.84Z"/>
    <g>
      <path class="cls-1" d="M370.38,355.29s-75.77,0-75.77,0v26.1h75.35c91.18,8.7,124.97-127.73,39.15-156.17v-.84c67.45-34.2,38.23-145.34-42.52-138.91,0,0-101.03,0-101.03,0v32.93c-21.68-35.02-73.67-41.81-111.83-21.79-20.88,10.95-30.69,30.58-30.69,53.68,0,13.86,3.27,25.67,9.78,35.43,1,1.53,2.08,2.96,3.19,4.36,2.47-4.89,5.32-9.66,8.83-14.21,1.13-1.47,2.32-2.87,3.53-4.25,2-1.72,3.95-3.38,5.89-5.04,1.96,2,.72,3.72.79,5.32.36,8.53,5.78,14.36,13.84,14.74,7.87.4,14.12-5.04,14.97-13.55.6-6.02.34-12.14.79-18.16.91-11.67,9.27-19.18,20.54-18.73,10.63.4,18.29,8.55,18.9,19.69.85,15.72-2.77,31.21-10.2,45.06-5.44,10.13-12.14,20.1-19.88,28.86-4.95,5.6-21.09,19.56-38.67,61.06-5.2,10.25-9.3,21.26-12.13,32.87,0,0,0,0,0,0h0c-3,12.31-4.58,25.31-4.58,38.81-3.12,157.37,189.35,194.66,263.1,109.03l-16.84-20.63s-36.2,39.57-95.98,39.57c-148.28,2.15-162.36-237.54-14.83-251.4,0-.01,0-.02,0-.04,13.22.02,81.2-.01,95.89,0,76.26-3.19,78.77,119.68.42,116.18ZM294.61,213.85v-102.29c42.58,2.19,124.08-15.92,122.07,50.52.54,68.26-78.37,49.43-122.07,51.77Z"/>
      <path class="cls-1" d="M143.2,242.4c6.85-14.23,13.85-28.41,20.88-42.57,2.17-4.34.26-5.51-3.81-6-27.96-3.4-28.11-3.3-28.45,24.14-.02.59-.02,1.15-.04,1.74h.08c-.09,6.62-.24,13.23-.3,19.86-.02,2.81-.62,6.1,3.28,7,3.83.9,6.55-.42,8.36-4.17Z"/>
    </g>
  </g>
  <rect class="cls-1" x="124.8" y="793.6" width="694.88" height="19.11"/>
  <g>
    <path class="cls-1" d="M924.02,703.84h15.48l-18.97,139.48h66.53l-1.78,14.56h-82.1l20.83-154.04Z"/>
    <path class="cls-1" d="M1015.83,743.94h13.84l-14.88,113.93h-14.37l15.41-113.93ZM1027.33,697.03c3.21,0,5.97,1.15,8.27,3.46,2.3,2.3,3.46,5.06,3.46,8.27s-1.15,6.06-3.46,8.33c-2.3,2.27-5.06,3.4-8.27,3.4s-6.06-1.13-8.33-3.4c-2.27-2.27-3.4-5.04-3.4-8.33s1.13-5.97,3.4-8.27c2.27-2.3,5.04-3.46,8.33-3.46Z"/>
    <path class="cls-1" d="M1113.77,703.84l-1.99,13.93c-5.35-5.03-10.39-7.54-15.1-7.54-3,0-5.57,1.42-7.71,4.26-2.14,2.84-3.82,8.58-5.03,17.23l-1.64,12.23h23.93l-1.57,12.78h-24.08l-13.6,101.16h-14.37l13.68-101.16h-13.68l1.57-12.78h13.84l1.36-10.05c1.7-11.8,3.5-19.69,5.42-23.67s4.74-7.17,8.49-9.58c3.75-2.41,7.89-3.61,12.42-3.61,5.95,0,11.96,2.27,18.05,6.81Z"/>
    <path class="cls-1" d="M1235.61,803.84h-101.58c-.21,13.54,3.31,24.19,10.58,31.94,7.26,7.75,16.93,11.62,29.01,11.62,8.03,0,15.46-1.64,22.3-4.92,6.84-3.28,12.49-7.89,16.96-13.82l10.89,8.9c-5.52,7.05-12.72,12.69-21.62,16.91-8.9,4.22-18.52,6.34-28.85,6.34-17.87,0-31.29-5.53-40.26-16.6-8.97-11.06-13.46-23.51-13.46-37.33,0-11.31,3.02-22.2,9.06-32.67,6.04-10.47,14.12-18.62,24.24-24.45,10.12-5.83,21.08-8.74,32.88-8.74,14.59,0,26.67,4.94,36.23,14.82,9.56,9.88,14.35,22.46,14.35,37.75,0,2.79-.25,6.21-.73,10.26ZM1222.2,791.06c-.42-10.72-4.08-19.4-11-26.05-6.91-6.65-15.6-9.97-26.07-9.97-11.38,0-21.41,3.2-30.11,9.61-8.69,6.4-14.85,15.21-18.48,26.42h85.66Z"/>
  </g>
</svg>